<mxfile host="app.diagrams.net" agent="Mozilla/5.0 (Windows NT 10.0; Win64; x64) AppleWebKit/537.36 (KHTML, like Gecko) Chrome/140.0.0.0 Safari/537.36" version="28.2.3">
  <diagram name="Page-1" id="SIEMaSjuZ0JY_0S20ByH">
    <mxGraphModel dx="1042" dy="562" grid="1" gridSize="10" guides="1" tooltips="1" connect="1" arrows="1" fold="1" page="1" pageScale="1" pageWidth="827" pageHeight="1169" math="0" shadow="0">
      <root>
        <mxCell id="0" />
        <mxCell id="1" parent="0" />
        <mxCell id="WdqI7PHseW-ToojyrJQq-4" style="edgeStyle=orthogonalEdgeStyle;rounded=0;orthogonalLoop=1;jettySize=auto;html=1;" edge="1" parent="1" source="WdqI7PHseW-ToojyrJQq-1">
          <mxGeometry relative="1" as="geometry">
            <mxPoint x="335" y="100" as="targetPoint" />
          </mxGeometry>
        </mxCell>
        <mxCell id="WdqI7PHseW-ToojyrJQq-1" value="ZK Eats" style="rounded=0;whiteSpace=wrap;html=1;" vertex="1" parent="1">
          <mxGeometry x="280" y="20" width="110" height="50" as="geometry" />
        </mxCell>
        <mxCell id="WdqI7PHseW-ToojyrJQq-6" style="edgeStyle=orthogonalEdgeStyle;rounded=0;orthogonalLoop=1;jettySize=auto;html=1;entryX=-0.005;entryY=0.418;entryDx=0;entryDy=0;entryPerimeter=0;" edge="1" parent="1" source="WdqI7PHseW-ToojyrJQq-2" target="WdqI7PHseW-ToojyrJQq-5">
          <mxGeometry relative="1" as="geometry">
            <mxPoint x="420" y="130" as="targetPoint" />
            <Array as="points">
              <mxPoint x="393" y="130" />
              <mxPoint x="393" y="131" />
              <mxPoint x="460" y="131" />
            </Array>
          </mxGeometry>
        </mxCell>
        <mxCell id="WdqI7PHseW-ToojyrJQq-8" style="edgeStyle=orthogonalEdgeStyle;rounded=0;orthogonalLoop=1;jettySize=auto;html=1;entryX=1;entryY=0.5;entryDx=0;entryDy=0;" edge="1" parent="1" source="WdqI7PHseW-ToojyrJQq-2" target="WdqI7PHseW-ToojyrJQq-7">
          <mxGeometry relative="1" as="geometry" />
        </mxCell>
        <mxCell id="WdqI7PHseW-ToojyrJQq-2" value="Designing UI/UX" style="ellipse;whiteSpace=wrap;html=1;" vertex="1" parent="1">
          <mxGeometry x="305" y="100" width="60" height="60" as="geometry" />
        </mxCell>
        <mxCell id="WdqI7PHseW-ToojyrJQq-11" style="edgeStyle=orthogonalEdgeStyle;rounded=0;orthogonalLoop=1;jettySize=auto;html=1;exitX=0.5;exitY=1;exitDx=0;exitDy=0;" edge="1" parent="1" source="WdqI7PHseW-ToojyrJQq-5">
          <mxGeometry relative="1" as="geometry">
            <mxPoint x="500" y="250" as="targetPoint" />
          </mxGeometry>
        </mxCell>
        <mxCell id="WdqI7PHseW-ToojyrJQq-5" value="Listing Restaurants and their&lt;div&gt;Cusines&lt;/div&gt;" style="ellipse;whiteSpace=wrap;html=1;" vertex="1" parent="1">
          <mxGeometry x="460" y="90" width="80" height="80" as="geometry" />
        </mxCell>
        <mxCell id="WdqI7PHseW-ToojyrJQq-10" style="edgeStyle=orthogonalEdgeStyle;rounded=0;orthogonalLoop=1;jettySize=auto;html=1;" edge="1" parent="1">
          <mxGeometry relative="1" as="geometry">
            <mxPoint x="169.5" y="250" as="targetPoint" />
            <mxPoint x="169.5" y="130" as="sourcePoint" />
          </mxGeometry>
        </mxCell>
        <mxCell id="WdqI7PHseW-ToojyrJQq-7" value="Customer Sign Up" style="ellipse;whiteSpace=wrap;html=1;" vertex="1" parent="1">
          <mxGeometry x="130" y="90" width="80" height="80" as="geometry" />
        </mxCell>
        <mxCell id="WdqI7PHseW-ToojyrJQq-14" style="edgeStyle=orthogonalEdgeStyle;rounded=0;orthogonalLoop=1;jettySize=auto;html=1;" edge="1" parent="1" source="WdqI7PHseW-ToojyrJQq-9">
          <mxGeometry relative="1" as="geometry">
            <mxPoint x="330" y="330" as="targetPoint" />
          </mxGeometry>
        </mxCell>
        <mxCell id="WdqI7PHseW-ToojyrJQq-9" value="Checkout page &amp;amp; RTS" style="ellipse;whiteSpace=wrap;html=1;" vertex="1" parent="1">
          <mxGeometry x="290" y="200" width="80" height="80" as="geometry" />
        </mxCell>
        <mxCell id="WdqI7PHseW-ToojyrJQq-12" value="" style="endArrow=classic;html=1;rounded=0;entryX=0.02;entryY=0.623;entryDx=0;entryDy=0;entryPerimeter=0;" edge="1" parent="1" target="WdqI7PHseW-ToojyrJQq-9">
          <mxGeometry width="50" height="50" relative="1" as="geometry">
            <mxPoint x="170" y="250" as="sourcePoint" />
            <mxPoint x="220" y="200" as="targetPoint" />
          </mxGeometry>
        </mxCell>
        <mxCell id="WdqI7PHseW-ToojyrJQq-13" value="" style="endArrow=classic;html=1;rounded=0;" edge="1" parent="1" target="WdqI7PHseW-ToojyrJQq-9">
          <mxGeometry width="50" height="50" relative="1" as="geometry">
            <mxPoint x="500" y="240" as="sourcePoint" />
            <mxPoint x="512" y="280" as="targetPoint" />
            <Array as="points">
              <mxPoint x="430" y="240" />
            </Array>
          </mxGeometry>
        </mxCell>
        <mxCell id="WdqI7PHseW-ToojyrJQq-16" style="edgeStyle=orthogonalEdgeStyle;rounded=0;orthogonalLoop=1;jettySize=auto;html=1;" edge="1" parent="1" source="WdqI7PHseW-ToojyrJQq-15">
          <mxGeometry relative="1" as="geometry">
            <mxPoint x="330" y="430" as="targetPoint" />
          </mxGeometry>
        </mxCell>
        <mxCell id="WdqI7PHseW-ToojyrJQq-15" value="Compiling to APK" style="ellipse;whiteSpace=wrap;html=1;" vertex="1" parent="1">
          <mxGeometry x="280" y="330" width="100" height="50" as="geometry" />
        </mxCell>
        <mxCell id="WdqI7PHseW-ToojyrJQq-19" style="edgeStyle=orthogonalEdgeStyle;rounded=0;orthogonalLoop=1;jettySize=auto;html=1;" edge="1" parent="1" source="WdqI7PHseW-ToojyrJQq-17">
          <mxGeometry relative="1" as="geometry">
            <mxPoint x="330" y="520" as="targetPoint" />
          </mxGeometry>
        </mxCell>
        <mxCell id="WdqI7PHseW-ToojyrJQq-17" value="No Bugs&lt;div&gt;Found&lt;/div&gt;" style="rhombus;whiteSpace=wrap;html=1;" vertex="1" parent="1">
          <mxGeometry x="290" y="400" width="80" height="80" as="geometry" />
        </mxCell>
        <mxCell id="WdqI7PHseW-ToojyrJQq-21" style="edgeStyle=orthogonalEdgeStyle;rounded=0;orthogonalLoop=1;jettySize=auto;html=1;" edge="1" parent="1" source="WdqI7PHseW-ToojyrJQq-20">
          <mxGeometry relative="1" as="geometry">
            <mxPoint x="325" y="630" as="targetPoint" />
          </mxGeometry>
        </mxCell>
        <mxCell id="WdqI7PHseW-ToojyrJQq-20" value="Writing permessions&lt;div&gt;for Deployment&lt;/div&gt;" style="shape=parallelogram;perimeter=parallelogramPerimeter;whiteSpace=wrap;html=1;fixedSize=1;" vertex="1" parent="1">
          <mxGeometry x="250" y="520" width="150" height="60" as="geometry" />
        </mxCell>
        <mxCell id="WdqI7PHseW-ToojyrJQq-24" style="edgeStyle=orthogonalEdgeStyle;rounded=0;orthogonalLoop=1;jettySize=auto;html=1;" edge="1" parent="1" source="WdqI7PHseW-ToojyrJQq-23">
          <mxGeometry relative="1" as="geometry">
            <mxPoint x="325" y="750" as="targetPoint" />
          </mxGeometry>
        </mxCell>
        <mxCell id="WdqI7PHseW-ToojyrJQq-23" value="Pushed to Appstore" style="shape=cylinder3;whiteSpace=wrap;html=1;boundedLbl=1;backgroundOutline=1;size=15;" vertex="1" parent="1">
          <mxGeometry x="295" y="630" width="60" height="80" as="geometry" />
        </mxCell>
        <mxCell id="WdqI7PHseW-ToojyrJQq-25" value="" style="ellipse;whiteSpace=wrap;html=1;" vertex="1" parent="1">
          <mxGeometry x="302.5" y="750" width="45" height="40" as="geometry" />
        </mxCell>
        <mxCell id="WdqI7PHseW-ToojyrJQq-30" value="" style="endArrow=none;html=1;rounded=0;" edge="1" parent="1">
          <mxGeometry width="50" height="50" relative="1" as="geometry">
            <mxPoint x="325" y="870" as="sourcePoint" />
            <mxPoint x="324.5" y="790" as="targetPoint" />
          </mxGeometry>
        </mxCell>
        <mxCell id="WdqI7PHseW-ToojyrJQq-31" value="" style="endArrow=none;html=1;rounded=0;" edge="1" parent="1">
          <mxGeometry width="50" height="50" relative="1" as="geometry">
            <mxPoint x="375" y="820" as="sourcePoint" />
            <mxPoint x="275" y="820" as="targetPoint" />
          </mxGeometry>
        </mxCell>
        <mxCell id="WdqI7PHseW-ToojyrJQq-32" value="" style="endArrow=none;html=1;rounded=0;" edge="1" parent="1">
          <mxGeometry width="50" height="50" relative="1" as="geometry">
            <mxPoint x="295" y="900" as="sourcePoint" />
            <mxPoint x="325" y="870" as="targetPoint" />
          </mxGeometry>
        </mxCell>
        <mxCell id="WdqI7PHseW-ToojyrJQq-33" value="" style="endArrow=none;html=1;rounded=0;" edge="1" parent="1">
          <mxGeometry width="50" height="50" relative="1" as="geometry">
            <mxPoint x="360" y="900" as="sourcePoint" />
            <mxPoint x="325" y="870" as="targetPoint" />
            <Array as="points" />
          </mxGeometry>
        </mxCell>
        <mxCell id="WdqI7PHseW-ToojyrJQq-36" value="Using Customer Application" style="text;html=1;align=center;verticalAlign=middle;resizable=0;points=[];autosize=1;strokeColor=none;fillColor=none;" vertex="1" parent="1">
          <mxGeometry x="240" y="910" width="170" height="30" as="geometry" />
        </mxCell>
        <mxCell id="WdqI7PHseW-ToojyrJQq-37" value="Recieved No Feedback" style="ellipse;shape=cloud;whiteSpace=wrap;html=1;" vertex="1" parent="1">
          <mxGeometry x="270" y="940" width="120" height="80" as="geometry" />
        </mxCell>
      </root>
    </mxGraphModel>
  </diagram>
</mxfile>
